<?xml version="1.0" encoding="UTF-8"?><svg id="a" xmlns="http://www.w3.org/2000/svg" xmlns:xlink="http://www.w3.org/1999/xlink" viewBox="0 0 76.626 37.047"><defs><style>.d{fill:none;}.e{fill:#3B5365;}.f{clip-path:url(#c);}.g{clip-path:url(#b);}</style><clipPath id="b"><rect class="d" width="76.626" height="37.047"/></clipPath><clipPath id="c"><rect class="d" width="76.626" height="37.047"/></clipPath></defs><g class="g"><path class="e" d="M23.5418,28.3436c-1.149,0-2.148-.19-2.996-.571-1.588-.734-2.588-2.065-2.998-3.996l-.122-1.754c-.066-1.161-.189-2.317-.37-3.467-.164-1.006-.451-1.862-.862-2.568-.876-1.441-2.314-2.162-4.311-2.162h-2.135v13.009h4.065v1.02H.4698v-1.02H4.5328V1.6326H.4698V.6136H14.9208c3.037,0,5.296,.488,6.775,1.468,1.532,.951,2.297,2.527,2.297,4.73,0,1.795-.711,3.236-2.133,4.322-1.453,1.116-3.627,1.89-6.529,2.324,3.422,.709,5.583,1.945,6.487,3.711,.465,.898,.801,1.876,1.006,2.937,.206,1.061,.323,2.203,.349,3.426l.042,1.998c.164,.626,.492,1.06,.985,1.305,.247,.136,.684,.204,1.313,.204,.437,0,1.013-.041,1.725-.123v.939c-1.37,.326-2.601,.489-3.695,.489h-.001ZM17.3848,2.9786c-.712-.897-1.916-1.347-3.613-1.347h-4.024V12.8056h3.49c1.779,0,3.08-.447,3.901-1.345,.819-.897,1.23-2.297,1.23-4.201,0-1.984-.328-3.41-.985-4.282l.001,.001Z"/><path class="e" d="M73.2183,1.632l-9.524,26.833h-1.231L52.6913,1.632h-3.407V.613h13.015V1.632h-4.229l6.979,19.086L71.9873,1.632h-4.27V.613h8.909V1.632h-3.408Zm-24.022,17.332c-.108,3.045-1.136,5.383-3.078,7.014-1.943,1.659-4.406,2.487-7.391,2.487-3.804,0-6.937-1.331-9.399-3.995-2.52-2.665-3.779-6.009-3.779-10.032,0-3.969,1.273-7.368,3.818-10.196C31.9143,1.415,34.9653,.001,38.5233,.001c1.424,0,2.696,.20399,3.819,.612,1.149,.408,2.093,.911,2.832,1.509l1.684-1.712h.944v7.869h-1.19c-.795-2.773-1.903-4.663-3.326-5.668-1.452-1.06-2.944-1.59-4.475-1.59-2.601,0-4.449,.815-5.543,2.446-1.123,1.659-1.684,4.134-1.684,7.423v5.546c0,3.807,.478,6.593,1.437,8.359,.957,1.769,2.779,2.651,5.46,2.651,1.451,0,2.614-.38,3.491-1.141,.93-.762,1.395-2.094,1.395-3.996v-3.345h-4.147v-1.02h12.85v1.02h-2.874Z"/></g><g class="f"><path class="e" d="M1.0898,33.9611h-.055c-.137,.003-.274,.031-.403,.081-.116,.047-.222,.114-.313,.201-.077,.075-.134,.165-.174,.265-.038,.098-.058,.188-.058,.274-.008,.158,.029,.316,.108,.453,.068,.11,.161,.202,.269,.269,.109,.067,.228,.118,.352,.156,.119,.033,.235,.072,.351,.114,.096,.035,.189,.085,.27,.149,.071,.06,.108,.146,.108,.26l-.055,.212-.14,.154c-.114,.079-.252,.123-.394,.124-.12,0-.236-.026-.349-.077-.113-.05-.204-.129-.278-.237L-.0002,36.6401c.102,.14,.242,.246,.405,.305,.17,.067,.349,.101,.539,.101,.141,0,.276-.022,.4-.063,.119-.039,.229-.099,.325-.178,.186-.156,.294-.381,.301-.618v-.049c0-.177-.035-.316-.108-.418-.073-.099-.161-.182-.27-.24-.107-.059-.224-.106-.352-.139-.126-.034-.242-.07-.349-.111-.098-.038-.19-.092-.269-.164-.073-.066-.109-.162-.109-.286l.026-.144,.094-.147,.18-.113c.081-.028,.165-.043,.249-.043h.04c.103,0,.206,.024,.3,.069l.214,.187,.328-.292c-.1-.127-.235-.221-.389-.271-.149-.043-.303-.065-.465-.065"/><path class="e" d="M7.7089,34.036h.4v2.563h1.357v.373h-1.757v-2.936Zm-2.953,3.012c-.214,.002-.426-.039-.623-.12-.368-.15-.658-.444-.803-.814-.077-.194-.116-.401-.114-.611,0-.218,.037-.421,.114-.609,.145-.37,.436-.665,.804-.815,.197-.08,.409-.121,.622-.118,.226,0,.433,.039,.622,.118,.368,.15,.659,.445,.804,.815,.076,.188,.114,.39,.114,.609s-.038,.422-.114,.611c-.145,.371-.436,.665-.804,.815-.197,.081-.409,.12-.622,.118m0-.373c.462,.007,.878-.281,1.035-.716,.054-.145,.08-.299,.08-.455,0-.16-.027-.31-.08-.454-.158-.434-.574-.721-1.036-.716-.307-.004-.601,.122-.81,.346-.097,.103-.171,.228-.225,.37-.054,.146-.08,.3-.08,.454,0,.161,.027,.312,.08,.455,.054,.143,.128,.266,.225,.372,.21,.223,.504,.348,.811,.344"/><path class="e" d="M10.6582,34.0343h0v1.863c-.001,.016-.001,.033,0,.049v-1.912Z"/><path class="e" d="M12.9453,34.0343h-.4v1.801c0,.091-.013,.186-.039,.284-.025,.098-.067,.189-.124,.272l-.232,.203c-.101,.051-.213,.08-.328,.08l-.022-.001c-.138,0-.255-.028-.351-.079-.094-.052-.171-.121-.23-.203-.058-.083-.099-.174-.126-.272-.024-.098-.035-.193-.035-.284v-1.801h-.4v1.912c.002,.144,.032,.285,.086,.417,.111,.276,.329,.492,.605,.6,.139,.056,.289,.083,.451,.083s.312-.027,.452-.083c.134-.053,.259-.134,.362-.238,.105-.103,.186-.225,.243-.362,.058-.139,.088-.295,.088-.466v-1.863Z"/><path class="e" d="M16.5439,34.67c-.084-.107-.192-.193-.316-.25s-.26-.086-.398-.086c-.305-.006-.597,.122-.8,.349-.097,.111-.173,.239-.222,.379-.106,.293-.107,.613-.005,.907,.05,.138,.123,.259,.218,.365,.096,.107,.213,.19,.345,.248,.147,.064,.305,.094,.464,.092,.155,.004,.309-.032,.446-.104,.13-.07,.242-.17,.328-.291l.337,.253c-.093,.119-.208,.222-.337,.301-.236,.145-.506,.219-.782,.214-.423,.006-.829-.169-1.114-.481-.261-.283-.406-.653-.406-1.038,0-.226,.037-.435,.113-.627,.074-.193,.181-.359,.316-.498,.134-.14,.296-.25,.485-.326,.386-.154,.815-.155,1.202-.005,.187,.076,.342,.19,.46,.345l-.334,.253Z"/><path class="e" d="M74.843,37.046h-.148c.026,.001,.05,.002,.075,.002,.02499,0,.049-.001,.073-.002m-6.895,0h-.189c.021,.001,.044,.001,.06599,.002h.05901c.021-.001,.043-.001,.064-.002m-6.017,0h-.193c.026,.001,.052,.002,.078,.002h.021c.031,0,.062-.001,.094-.002m-20.505,0h-.148c.025,.001,.05,.002,.075,.002s.049-.001,.073-.002m-8.539,0h-.149c.025,.001,.05,.002,.075,.002,.026,0,.05-.001,.074-.002m-11.18,0h-.177c.029,.001,.056,.002,.084,.002h.018c.025,0,.051-.001,.075-.002"/><path class="e" d="M76.626,30.931H.47v.841H76.626v-.841Zm-17.983,2.341h-.536l-.432,.596h.344l.624-.596Zm9.213,.688c-.206,0-.413,.039-.608,.117-.187,.077-.35,.187-.484,.325-.136,.14-.242,.305-.317,.499-.075,.192-.112,.402-.112,.627,0,.386,.144,.756,.405,1.039,.265,.287,.631,.459,1.019,.479h.189c.242-.013,.479-.085,.688-.213,.129-.079,.244-.181,.338-.301l-.338-.252c-.085,.121-.197,.22-.327,.289-.131,.069-.276,.105-.424,.105l-.023-.001c-.17,0-.326-.029-.462-.09-.131-.058-.25-.142-.345-.25-.096-.105-.169-.227-.219-.364-.103-.294-.101-.615,.005-.906,.048-.142,.125-.269,.222-.38,.197-.221,.479-.348,.77499-.348h.024c.138,0,.274,.028,.398,.085,.126,.056,.23199,.143,.317,.25l.335-.252c-.119-.156-.274-.27-.46101-.347-.19099-.073-.392-.111-.59499-.111m7.032,.001c-.147,0-.291,.027-.427,.081-.116,.047-.222,.114-.313,.201-.076,.075-.136,.165-.178,.265-.037,.098-.056,.188-.056,.274-.008,.159,.029,.316,.108,.453,.07,.11,.16299,.202,.271,.269,.109,.067,.228,.118,.35,.156,.119,.033,.235,.072,.35101,.115,.098,.036,.189,.085,.27,.151,.071,.058,.108,.145,.108,.257l-.055,.212-.14,.154c-.114,.079-.252,.123-.39301,.124-.12099,0-.237-.026-.349-.077-.114-.05-.206-.129-.279-.236l-.32899,.28c.102,.14,.242,.246,.406,.305,.147,.06,.3,.092,.462,.101h.148c.115-.007,.225-.026,.328-.062,.119-.039,.229-.098,.327-.177,.194-.167,.303-.412,.301-.667,0-.179-.037-.318-.11-.417-.07301-.102-.163-.183-.27-.243-.107-.059-.224-.106-.349-.138-.129-.033-.245-.071-.352-.112-.107-.039-.197-.096-.271-.162-.071-.066-.107-.162-.107-.286l.02901-.144,.09399-.147,.177-.113c.079-.028,.163-.043,.248-.043h.05c.101,0,.201,.024,.29099,.069l.21201,.187,.328-.294c-.1-.127-.235-.221-.389-.271-.147-.042-.30299-.065-.465-.065h-.027m-13.093,0c-.226,0-.432,.039-.622,.118-.368,.149-.659,.445-.805,.815-.077,.189-.112,.392-.112,.61-.002,.201,.033,.402,.104,.591,.071,.181,.175,.349,.309,.492,.142,.143,.31,.258,.498,.334,.183,.074,.375,.115,.571,.125h.193c.064-.003,.129-.008,.193-.016,.199-.02,.397-.067,.585-.137l.248-.117v-1.447h-1.057v.374h.657v.819c-.09,.047-.198,.086-.326,.112-.126,.026-.261,.039-.402,.039-.164,0-.315-.029-.455-.09-.276-.114-.496-.339-.605-.616-.115-.295-.119-.62-.009-.917,.053-.144,.127-.268,.225-.371,.206-.219,.492-.344,.79-.344h.036c.141,0,.281,.024,.415,.067,.144,.051,.278,.134,.389,.244l.283-.304c-.118-.117-.26-.212-.434-.279-.172-.068-.397-.102-.669-.102m-20.295,0c-.179,0-.329,.026-.457,.081-.114,.047-.222,.114-.312,.201-.144,.141-.229,.334-.233,.539-.009,.159,.028,.316,.107,.453,.07,.11,.162,.202,.271,.269s.228,.118,.35,.156c.118,.033,.237,.072,.351,.115,.098,.036,.188,.085,.269,.151,.073,.058,.109,.145,.109,.257l-.055,.212-.138,.154c-.117,.079-.254,.123-.396,.124-.12,0-.238-.026-.349-.077-.113-.05-.204-.129-.276-.236l-.33,.28c.103,.14,.241,.246,.404,.305,.147,.06,.302,.092,.463,.101h.148c.116-.007,.225-.026,.33-.062,.118-.039,.229-.098,.325-.177,.193-.167,.304-.412,.301-.667,.009-.15-.03-.293-.11-.417-.071-.102-.161-.183-.268-.243-.108-.059-.224-.106-.352-.138-.126-.033-.242-.071-.349-.112-.108-.039-.198-.096-.271-.162-.071-.066-.107-.162-.107-.286l.026-.144,.094-.147,.179-.113c.079-.028,.163-.043,.248-.043h.049c.102,0,.202,.024,.292,.069l.213,.187,.328-.294c-.1-.127-.236-.221-.39-.271-.147-.042-.302-.065-.464-.065m-8.539,0c-.179,0-.331,.026-.457,.081-.114,.047-.222,.114-.313,.201-.146,.139-.23,.334-.234,.539-.008,.159,.03,.316,.109,.453,.068,.11,.162,.202,.269,.269,.11,.067,.229,.118,.352,.156,.118,.033,.234,.072,.351,.115,.098,.036,.188,.085,.269,.151,.073,.058,.109,.145,.109,.257l-.055,.212-.141,.154c-.115,.079-.251,.123-.393,.124-.12,0-.241-.026-.349-.077-.113-.05-.206-.129-.279-.236l-.329,.28c.102,.14,.242,.246,.404,.305,.149,.06,.302,.092,.464,.101h.149c.115-.007,.224-.026,.329-.062,.119-.039,.229-.098,.325-.177,.193-.167,.305-.412,.301-.667,0-.179-.035-.318-.109-.417-.073-.102-.162-.183-.271-.243-.105-.059-.223-.106-.35-.138-.125-.033-.242-.071-.351-.112-.105-.039-.195-.096-.269-.162-.071-.066-.108-.162-.108-.286l.027-.144,.095-.147,.177-.113c.081-.028,.165-.043,.25-.043h.049c.1,0,.201,.024,.29,.069l.215,.187,.325-.294c-.099-.127-.235-.221-.389-.271-.147-.042-.301-.065-.462-.065m-11.347,0c-.225,0-.431,.039-.622,.118-.368,.151-.659,.445-.805,.815-.074,.189-.114,.392-.114,.61-.002,.209,.038,.415,.114,.609,.146,.371,.437,.665,.805,.814,.166,.071,.346,.11,.538,.119h.177c.182-.009,.361-.048,.529-.117,.369-.151,.659-.445,.804-.816,.076-.187,.114-.39,.114-.609,0-.22-.038-.421-.114-.61-.145-.37-.435-.664-.804-.815-.189-.079-.396-.118-.622-.118m-.002,.372h.018c.458,0,.864,.286,1.02,.717,.053,.143,.079,.292,.079,.454,0,.16-.026,.311-.079,.453-.052,.145-.128,.268-.225,.372-.207,.221-.495,.344-.797,.344h-.014c-.171,0-.323-.029-.458-.092-.139-.064-.254-.146-.351-.252-.098-.104-.173-.228-.226-.372-.053-.142-.081-.293-.081-.453,0-.155,.026-.311,.081-.454,.053-.144,.128-.268,.226-.371,.205-.221,.493-.346,.795-.346h.012m49.973-.297h-.365l-1.302,2.936h.466l.293-.728h1.409l.298,.728h.466l-1.265-2.936Zm-.765,1.864l.56-1.35h.008l.552,1.35h-1.12Zm-5.749-1.864h-.549v2.936h.549v-2.936Zm-6.11,0h-1.908v2.936h1.983v-.373h-1.583v-.941h1.402v-.374h-1.402v-.876h1.508v-.372Zm-1.908,0h0Zm-1.263,0h-2.305v.372h.951v2.564h.402v-2.564h.952v-.372Zm-4.072,0h-.363l-1.3,2.936h.466l.293-.728h1.406l.297,.728h.468l-1.267-2.936Zm-.763,1.864l.56-1.35h.007l.551,1.35h-1.118Zm-2.872-1.864h-1.042v2.936h.402v-1.293h.446l.752,1.293h.502l-.84-1.34c.205-.019,.394-.115,.532-.267,.128-.139,.195-.322,.195-.509,0-.09-.013-.184-.041-.283s-.079-.189-.148-.266c-.081-.087-.182-.153-.292-.194-.122-.052-.278-.077-.466-.077m-.64,1.293v-.945h.527l.231,.018,.205,.069,.143,.142,.055,.243-.055,.244-.143,.143-.205,.068-.231,.018h-.527Zm-1.663-1.293h-2.304v.372h.951l.002,2.564h.4v-2.564h.951v-.372Zm-6.605,0h-1.91v2.936h1.985v-.371h-1.583v-.943h1.402v-.374h-1.402v-.876h1.508v-.372Zm-8.539,0h-1.91v2.936h1.984v-.371h-1.582v-.943h1.402v-.374h-1.402v-.876h1.508v-.372Zm-3.504,0h-.403v2.414h-.007l-1.628-2.414h-.529v2.936h.403v-2.415h.008l1.644,2.415h.512v-2.936Zm-8.322,0h-.548v2.936h.548v-2.936Z"/></g></svg>