<svg xmlns="http://www.w3.org/2000/svg" xmlns:xlink="http://www.w3.org/1999/xlink" width="83" zoomAndPan="magnify" viewBox="0 0 62.25 30.000001" height="40" preserveAspectRatio="xMidYMid meet" version="1.0"><defs><clipPath id="354a53f1d4"><path d="M 1 0.0429688 L 23 0.0429688 L 23 23 L 1 23 Z M 1 0.0429688 " clip-rule="nonzero"/></clipPath><clipPath id="80fdc6ee4f"><path d="M 20 0.0429688 L 60.867188 0.0429688 L 60.867188 23 L 20 23 Z M 20 0.0429688 " clip-rule="nonzero"/></clipPath><clipPath id="e62ece036a"><path d="M 0.65625 26 L 3 26 L 3 28.988281 L 0.65625 28.988281 Z M 0.65625 26 " clip-rule="nonzero"/></clipPath><clipPath id="4cd9f2e685"><path d="M 3 26 L 9 26 L 9 28.988281 L 3 28.988281 Z M 3 26 " clip-rule="nonzero"/></clipPath><clipPath id="f10b18f308"><path d="M 9 26 L 11 26 L 11 28.988281 L 9 28.988281 Z M 9 26 " clip-rule="nonzero"/></clipPath><clipPath id="9f0d5d23af"><path d="M 11 26 L 14 26 L 14 28.988281 L 11 28.988281 Z M 11 26 " clip-rule="nonzero"/></clipPath><clipPath id="4949b9f68f"><path d="M 17 28 L 60 28 L 60 28.988281 L 17 28.988281 Z M 17 28 " clip-rule="nonzero"/></clipPath><clipPath id="8cf7d569fa"><path d="M 1 24 L 60.867188 24 L 60.867188 28.988281 L 1 28.988281 Z M 1 24 " clip-rule="nonzero"/></clipPath></defs><g clip-path="url(#354a53f1d4)"><path fill="#ffffff" d="M 19.15625 22.167969 C 18.253906 22.167969 17.46875 22.019531 16.800781 21.722656 C 15.550781 21.148438 14.765625 20.105469 14.445312 18.589844 L 14.347656 17.214844 C 14.296875 16.304688 14.199219 15.398438 14.058594 14.5 C 13.929688 13.710938 13.703125 13.039062 13.378906 12.488281 C 12.691406 11.355469 11.5625 10.792969 9.992188 10.792969 L 8.316406 10.792969 L 8.316406 20.988281 L 11.507812 20.988281 L 11.507812 21.785156 L 1.023438 21.785156 L 1.023438 20.988281 L 4.21875 20.988281 L 4.21875 1.238281 L 1.023438 1.238281 L 1.023438 0.4375 L 12.378906 0.4375 C 14.765625 0.4375 16.542969 0.820312 17.703125 1.589844 C 18.90625 2.335938 19.507812 3.570312 19.507812 5.296875 C 19.507812 6.703125 18.949219 7.832031 17.832031 8.683594 C 16.691406 9.558594 14.984375 10.164062 12.703125 10.503906 C 15.390625 11.058594 17.089844 12.027344 17.800781 13.410156 C 18.164062 14.117188 18.429688 14.882812 18.589844 15.714844 C 18.753906 16.546875 18.84375 17.441406 18.863281 18.398438 L 18.898438 19.964844 C 19.027344 20.453125 19.285156 20.792969 19.671875 20.988281 C 19.867188 21.09375 20.210938 21.148438 20.703125 21.148438 C 21.046875 21.148438 21.5 21.113281 22.058594 21.050781 L 22.058594 21.785156 C 20.984375 22.042969 20.015625 22.167969 19.15625 22.167969 Z M 14.316406 2.292969 C 13.757812 1.589844 12.8125 1.234375 11.476562 1.234375 L 8.316406 1.234375 L 8.316406 9.992188 L 11.058594 9.992188 C 12.457031 9.992188 13.476562 9.644531 14.125 8.9375 C 14.765625 8.234375 15.089844 7.140625 15.089844 5.648438 C 15.089844 4.09375 14.832031 2.972656 14.316406 2.292969 Z M 14.316406 2.292969 " fill-opacity="1" fill-rule="nonzero"/></g><g clip-path="url(#80fdc6ee4f)"><path fill="#ffffff" d="M 58.191406 1.238281 L 50.707031 22.265625 L 49.738281 22.265625 L 42.0625 1.238281 L 39.382812 1.238281 L 39.382812 0.4375 L 49.609375 0.4375 L 49.609375 1.238281 L 46.289062 1.238281 L 51.773438 16.195312 L 57.222656 1.238281 L 53.867188 1.238281 L 53.867188 0.4375 L 60.867188 0.4375 L 60.867188 1.238281 Z M 39.3125 14.820312 C 39.230469 17.207031 38.421875 19.039062 36.894531 20.316406 C 35.367188 21.617188 33.433594 22.265625 31.085938 22.265625 C 28.097656 22.265625 25.636719 21.222656 23.703125 19.132812 C 21.722656 17.046875 20.730469 14.425781 20.730469 11.273438 C 20.730469 8.160156 21.734375 5.5 23.734375 3.28125 C 25.734375 1.066406 28.132812 -0.0429688 30.925781 -0.0429688 C 32.046875 -0.0429688 33.046875 0.117188 33.929688 0.4375 C 34.832031 0.757812 35.574219 1.152344 36.152344 1.621094 L 37.476562 0.277344 L 38.21875 0.277344 L 38.21875 6.445312 L 37.285156 6.445312 C 36.660156 4.273438 35.789062 2.792969 34.671875 2.003906 C 33.527344 1.171875 32.355469 0.757812 31.152344 0.757812 C 29.109375 0.757812 27.65625 1.394531 26.796875 2.675781 C 25.914062 3.976562 25.476562 5.914062 25.476562 8.492188 L 25.476562 12.839844 C 25.476562 15.820312 25.851562 18.003906 26.605469 19.386719 C 27.355469 20.773438 28.789062 21.464844 30.894531 21.464844 C 32.035156 21.464844 32.949219 21.167969 33.636719 20.570312 C 34.367188 19.976562 34.734375 18.929688 34.734375 17.441406 L 34.734375 14.820312 L 31.476562 14.820312 L 31.476562 14.019531 L 41.574219 14.019531 L 41.574219 14.820312 Z M 39.3125 14.820312 " fill-opacity="1" fill-rule="nonzero"/></g><g clip-path="url(#e62ece036a)"><path fill="#ffffff" d="M 1.511719 26.570312 L 1.46875 26.570312 C 1.359375 26.574219 1.253906 26.597656 1.152344 26.636719 C 1.0625 26.671875 0.976562 26.722656 0.90625 26.792969 C 0.84375 26.851562 0.800781 26.921875 0.769531 27 C 0.738281 27.078125 0.722656 27.148438 0.722656 27.214844 C 0.71875 27.339844 0.746094 27.460938 0.808594 27.570312 C 0.863281 27.65625 0.933594 27.726562 1.019531 27.78125 C 1.105469 27.832031 1.199219 27.875 1.296875 27.902344 C 1.390625 27.929688 1.480469 27.960938 1.574219 27.992188 C 1.648438 28.019531 1.722656 28.058594 1.785156 28.109375 C 1.839844 28.15625 1.871094 28.222656 1.871094 28.3125 L 1.828125 28.480469 L 1.714844 28.601562 C 1.625 28.660156 1.519531 28.695312 1.40625 28.695312 C 1.3125 28.695312 1.222656 28.675781 1.132812 28.636719 C 1.042969 28.597656 0.972656 28.535156 0.914062 28.449219 L 0.65625 28.671875 C 0.734375 28.78125 0.84375 28.863281 0.972656 28.910156 C 1.105469 28.960938 1.246094 28.988281 1.398438 28.988281 C 1.507812 28.988281 1.613281 28.972656 1.710938 28.941406 C 1.804688 28.910156 1.890625 28.863281 1.96875 28.800781 C 2.113281 28.679688 2.199219 28.5 2.203125 28.316406 L 2.203125 28.277344 C 2.203125 28.140625 2.175781 28.03125 2.117188 27.949219 C 2.0625 27.871094 1.992188 27.808594 1.90625 27.761719 C 1.824219 27.714844 1.730469 27.679688 1.628906 27.652344 C 1.53125 27.625 1.441406 27.597656 1.355469 27.566406 C 1.277344 27.535156 1.207031 27.492188 1.144531 27.4375 C 1.085938 27.386719 1.058594 27.3125 1.058594 27.214844 L 1.078125 27.101562 L 1.152344 26.984375 L 1.292969 26.898438 C 1.359375 26.875 1.425781 26.863281 1.488281 26.863281 L 1.519531 26.863281 C 1.601562 26.863281 1.683594 26.882812 1.757812 26.917969 L 1.925781 27.0625 L 2.183594 26.835938 C 2.105469 26.734375 2 26.660156 1.878906 26.621094 C 1.761719 26.589844 1.640625 26.570312 1.511719 26.570312 " fill-opacity="1" fill-rule="nonzero"/></g><g clip-path="url(#4cd9f2e685)"><path fill="#ffffff" d="M 6.714844 26.628906 L 7.027344 26.628906 L 7.027344 28.640625 L 8.09375 28.640625 L 8.09375 28.929688 L 6.714844 28.929688 Z M 4.394531 28.992188 C 4.226562 28.992188 4.058594 28.960938 3.902344 28.898438 C 3.613281 28.777344 3.386719 28.546875 3.273438 28.257812 C 3.210938 28.105469 3.179688 27.945312 3.183594 27.78125 C 3.183594 27.609375 3.210938 27.449219 3.273438 27.300781 C 3.386719 27.011719 3.613281 26.78125 3.902344 26.664062 C 4.058594 26.601562 4.226562 26.570312 4.394531 26.570312 C 4.570312 26.570312 4.734375 26.601562 4.882812 26.664062 C 5.171875 26.78125 5.398438 27.011719 5.511719 27.300781 C 5.574219 27.449219 5.601562 27.609375 5.601562 27.78125 C 5.601562 27.953125 5.574219 28.109375 5.511719 28.257812 C 5.398438 28.550781 5.171875 28.78125 4.882812 28.898438 C 4.726562 28.960938 4.558594 28.992188 4.394531 28.988281 M 4.394531 28.699219 C 4.757812 28.703125 5.082031 28.476562 5.207031 28.136719 C 5.25 28.023438 5.269531 27.902344 5.269531 27.78125 C 5.269531 27.65625 5.246094 27.535156 5.207031 27.425781 C 5.082031 27.085938 4.753906 26.859375 4.390625 26.863281 C 4.152344 26.859375 3.917969 26.957031 3.753906 27.132812 C 3.679688 27.214844 3.621094 27.3125 3.578125 27.425781 C 3.535156 27.539062 3.515625 27.660156 3.515625 27.78125 C 3.515625 27.90625 3.535156 28.023438 3.578125 28.136719 C 3.621094 28.25 3.679688 28.34375 3.753906 28.429688 C 3.921875 28.601562 4.152344 28.699219 4.394531 28.699219 " fill-opacity="1" fill-rule="nonzero"/></g><g clip-path="url(#f10b18f308)"><path fill="#ffffff" d="M 10.828125 26.628906 L 10.515625 26.628906 L 10.515625 28.039062 C 10.515625 28.113281 10.503906 28.1875 10.484375 28.261719 C 10.464844 28.339844 10.429688 28.410156 10.386719 28.476562 L 10.203125 28.636719 C 10.125 28.675781 10.035156 28.699219 9.945312 28.699219 L 9.929688 28.695312 C 9.820312 28.695312 9.726562 28.675781 9.652344 28.636719 C 9.578125 28.59375 9.519531 28.539062 9.472656 28.476562 C 9.425781 28.410156 9.394531 28.339844 9.371094 28.261719 C 9.355469 28.1875 9.34375 28.113281 9.34375 28.039062 L 9.34375 26.628906 L 9.03125 26.628906 L 9.03125 28.128906 C 9.03125 28.238281 9.054688 28.351562 9.097656 28.453125 C 9.1875 28.671875 9.355469 28.839844 9.574219 28.925781 C 9.683594 28.96875 9.800781 28.988281 9.929688 28.988281 C 10.054688 28.988281 10.171875 28.96875 10.285156 28.925781 C 10.390625 28.882812 10.488281 28.820312 10.566406 28.738281 C 10.652344 28.65625 10.714844 28.5625 10.757812 28.453125 C 10.804688 28.34375 10.828125 28.222656 10.828125 28.089844 Z M 10.828125 26.628906 " fill-opacity="1" fill-rule="nonzero"/></g><g clip-path="url(#9f0d5d23af)"><path fill="#ffffff" d="M 13.65625 27.128906 C 13.589844 27.042969 13.503906 26.976562 13.40625 26.929688 C 13.308594 26.886719 13.203125 26.863281 13.09375 26.863281 C 12.855469 26.859375 12.625 26.960938 12.464844 27.136719 C 12.390625 27.222656 12.332031 27.324219 12.292969 27.433594 C 12.207031 27.664062 12.207031 27.914062 12.289062 28.144531 C 12.328125 28.253906 12.382812 28.347656 12.460938 28.429688 C 12.535156 28.515625 12.625 28.578125 12.730469 28.625 C 12.847656 28.675781 12.96875 28.699219 13.09375 28.699219 C 13.214844 28.699219 13.335938 28.671875 13.445312 28.617188 C 13.546875 28.5625 13.636719 28.484375 13.703125 28.386719 L 13.96875 28.585938 C 13.894531 28.679688 13.804688 28.761719 13.703125 28.820312 C 13.515625 28.9375 13.304688 28.992188 13.089844 28.988281 C 12.757812 28.996094 12.4375 28.859375 12.214844 28.613281 C 12.007812 28.390625 11.894531 28.101562 11.894531 27.800781 C 11.894531 27.621094 11.921875 27.457031 11.984375 27.308594 C 12.042969 27.15625 12.125 27.027344 12.230469 26.917969 C 12.335938 26.808594 12.464844 26.722656 12.613281 26.664062 C 12.914062 26.542969 13.253906 26.539062 13.558594 26.660156 C 13.703125 26.71875 13.824219 26.808594 13.917969 26.929688 Z M 13.65625 27.128906 " fill-opacity="1" fill-rule="nonzero"/></g><g clip-path="url(#4949b9f68f)"><path fill="#ffffff" d="M 59.46875 28.988281 L 59.351562 28.988281 C 59.371094 28.988281 59.390625 28.992188 59.410156 28.992188 C 59.429688 28.992188 59.449219 28.988281 59.46875 28.988281 M 54.050781 28.988281 L 53.902344 28.988281 C 53.917969 28.988281 53.933594 28.988281 53.953125 28.992188 L 54 28.992188 C 54.015625 28.988281 54.03125 28.988281 54.050781 28.988281 M 49.320312 28.988281 L 49.167969 28.988281 C 49.191406 28.988281 49.210938 28.992188 49.230469 28.992188 L 49.246094 28.992188 C 49.273438 28.992188 49.296875 28.988281 49.320312 28.988281 M 33.207031 28.988281 L 33.09375 28.988281 C 33.113281 28.988281 33.132812 28.992188 33.152344 28.992188 C 33.171875 28.992188 33.1875 28.988281 33.207031 28.988281 M 26.5 28.988281 L 26.382812 28.988281 C 26.402344 28.988281 26.421875 28.992188 26.441406 28.992188 C 26.460938 28.992188 26.480469 28.988281 26.5 28.988281 M 17.714844 28.988281 L 17.574219 28.988281 C 17.597656 28.988281 17.617188 28.992188 17.640625 28.992188 L 17.652344 28.992188 C 17.671875 28.992188 17.695312 28.988281 17.714844 28.988281 " fill-opacity="1" fill-rule="nonzero"/></g><g clip-path="url(#8cf7d569fa)"><path fill="#ffffff" d="M 60.867188 24.195312 L 1.023438 24.195312 L 1.023438 24.855469 L 60.867188 24.855469 Z M 46.738281 26.03125 L 46.316406 26.03125 L 45.976562 26.5 L 46.246094 26.5 Z M 53.976562 26.570312 C 53.816406 26.570312 53.652344 26.601562 53.5 26.664062 C 53.351562 26.722656 53.222656 26.808594 53.117188 26.917969 C 53.011719 27.027344 52.929688 27.15625 52.871094 27.308594 C 52.8125 27.457031 52.78125 27.625 52.78125 27.800781 C 52.78125 28.101562 52.894531 28.390625 53.101562 28.613281 C 53.308594 28.839844 53.597656 28.972656 53.902344 28.988281 L 54.050781 28.988281 C 54.238281 28.980469 54.425781 28.921875 54.589844 28.820312 C 54.691406 28.761719 54.78125 28.679688 54.855469 28.585938 L 54.589844 28.390625 C 54.523438 28.484375 54.433594 28.5625 54.332031 28.617188 C 54.230469 28.667969 54.117188 28.699219 54 28.699219 L 53.980469 28.695312 C 53.847656 28.695312 53.726562 28.675781 53.617188 28.625 C 53.515625 28.582031 53.421875 28.515625 53.347656 28.429688 C 53.273438 28.347656 53.214844 28.253906 53.175781 28.144531 C 53.09375 27.914062 53.097656 27.664062 53.179688 27.433594 C 53.21875 27.324219 53.277344 27.222656 53.355469 27.136719 C 53.507812 26.964844 53.730469 26.863281 53.964844 26.863281 L 53.980469 26.863281 C 54.089844 26.863281 54.195312 26.886719 54.292969 26.929688 C 54.394531 26.976562 54.476562 27.042969 54.542969 27.128906 L 54.808594 26.929688 C 54.714844 26.808594 54.589844 26.71875 54.445312 26.65625 C 54.292969 26.601562 54.136719 26.570312 53.976562 26.570312 M 59.503906 26.570312 C 59.386719 26.570312 59.273438 26.59375 59.167969 26.636719 C 59.074219 26.671875 58.992188 26.722656 58.921875 26.792969 C 58.863281 26.851562 58.8125 26.921875 58.78125 27 C 58.753906 27.078125 58.738281 27.148438 58.738281 27.214844 C 58.730469 27.339844 58.761719 27.460938 58.824219 27.570312 C 58.878906 27.65625 58.949219 27.726562 59.035156 27.78125 C 59.121094 27.832031 59.214844 27.875 59.308594 27.902344 C 59.402344 27.929688 59.496094 27.960938 59.585938 27.992188 C 59.664062 28.019531 59.734375 28.058594 59.796875 28.113281 C 59.855469 28.15625 59.882812 28.226562 59.882812 28.3125 L 59.839844 28.480469 L 59.730469 28.601562 C 59.640625 28.660156 59.53125 28.695312 59.421875 28.695312 C 59.324219 28.695312 59.234375 28.675781 59.148438 28.636719 C 59.058594 28.597656 58.984375 28.535156 58.925781 28.453125 L 58.667969 28.671875 C 58.75 28.78125 58.859375 28.863281 58.988281 28.910156 C 59.105469 28.957031 59.222656 28.980469 59.351562 28.988281 L 59.46875 28.988281 C 59.558594 28.984375 59.644531 28.96875 59.726562 28.941406 C 59.820312 28.910156 59.90625 28.863281 59.980469 28.800781 C 60.132812 28.671875 60.21875 28.480469 60.21875 28.277344 C 60.21875 28.140625 60.191406 28.03125 60.132812 27.953125 C 60.074219 27.871094 60.003906 27.808594 59.921875 27.761719 C 59.835938 27.714844 59.742188 27.679688 59.644531 27.652344 C 59.542969 27.628906 59.453125 27.597656 59.371094 27.566406 C 59.285156 27.535156 59.214844 27.492188 59.15625 27.4375 C 59.101562 27.386719 59.070312 27.3125 59.070312 27.214844 L 59.09375 27.101562 L 59.167969 26.988281 L 59.308594 26.898438 C 59.371094 26.875 59.4375 26.863281 59.503906 26.863281 L 59.542969 26.863281 C 59.621094 26.863281 59.699219 26.882812 59.769531 26.917969 L 59.9375 27.066406 L 60.195312 26.835938 C 60.117188 26.734375 60.011719 26.660156 59.890625 26.621094 C 59.773438 26.589844 59.652344 26.570312 59.523438 26.570312 L 59.503906 26.570312 M 49.214844 26.570312 C 49.035156 26.570312 48.875 26.601562 48.726562 26.664062 C 48.4375 26.78125 48.207031 27.011719 48.09375 27.300781 C 48.03125 27.449219 48.003906 27.609375 48.003906 27.78125 C 48.003906 27.9375 48.03125 28.097656 48.085938 28.242188 C 48.140625 28.386719 48.222656 28.515625 48.328125 28.628906 C 48.441406 28.742188 48.574219 28.832031 48.722656 28.890625 C 48.863281 28.949219 49.015625 28.980469 49.167969 28.988281 L 49.320312 28.988281 C 49.371094 28.988281 49.421875 28.984375 49.472656 28.976562 C 49.628906 28.960938 49.785156 28.925781 49.933594 28.871094 L 50.128906 28.777344 L 50.128906 27.644531 L 49.296875 27.644531 L 49.296875 27.9375 L 49.8125 27.9375 L 49.8125 28.578125 C 49.742188 28.617188 49.65625 28.644531 49.558594 28.667969 C 49.457031 28.6875 49.351562 28.695312 49.242188 28.695312 C 49.113281 28.695312 48.992188 28.675781 48.882812 28.625 C 48.667969 28.535156 48.492188 28.359375 48.40625 28.144531 C 48.316406 27.914062 48.316406 27.65625 48.402344 27.425781 C 48.441406 27.3125 48.5 27.214844 48.578125 27.132812 C 48.738281 26.960938 48.964844 26.863281 49.199219 26.863281 L 49.226562 26.863281 C 49.335938 26.863281 49.449219 26.882812 49.554688 26.917969 C 49.667969 26.957031 49.769531 27.023438 49.859375 27.109375 L 50.082031 26.871094 C 49.988281 26.777344 49.875 26.703125 49.738281 26.652344 C 49.605469 26.597656 49.429688 26.570312 49.214844 26.570312 M 33.265625 26.570312 C 33.125 26.570312 33.007812 26.59375 32.90625 26.636719 C 32.816406 26.671875 32.734375 26.722656 32.664062 26.792969 C 32.550781 26.902344 32.480469 27.054688 32.480469 27.214844 C 32.472656 27.339844 32.5 27.460938 32.5625 27.570312 C 32.617188 27.65625 32.691406 27.726562 32.777344 27.78125 C 32.863281 27.832031 32.957031 27.875 33.050781 27.902344 C 33.144531 27.929688 33.238281 27.960938 33.328125 27.992188 C 33.402344 28.019531 33.476562 28.058594 33.539062 28.113281 C 33.59375 28.15625 33.625 28.226562 33.625 28.3125 L 33.582031 28.480469 L 33.472656 28.601562 C 33.378906 28.660156 33.273438 28.695312 33.160156 28.695312 C 33.066406 28.695312 32.972656 28.675781 32.886719 28.636719 C 32.796875 28.597656 32.726562 28.535156 32.671875 28.453125 L 32.410156 28.671875 C 32.492188 28.78125 32.601562 28.863281 32.726562 28.910156 C 32.84375 28.957031 32.964844 28.980469 33.09375 28.988281 L 33.207031 28.988281 C 33.300781 28.984375 33.386719 28.96875 33.46875 28.941406 C 33.558594 28.910156 33.648438 28.863281 33.722656 28.800781 C 33.875 28.671875 33.960938 28.480469 33.960938 28.277344 C 33.964844 28.160156 33.9375 28.050781 33.875 27.953125 C 33.816406 27.871094 33.746094 27.808594 33.664062 27.761719 C 33.578125 27.714844 33.488281 27.679688 33.386719 27.652344 C 33.285156 27.628906 33.195312 27.597656 33.113281 27.566406 C 33.027344 27.535156 32.957031 27.492188 32.898438 27.4375 C 32.84375 27.386719 32.816406 27.3125 32.816406 27.214844 L 32.835938 27.101562 L 32.910156 26.988281 L 33.050781 26.898438 C 33.113281 26.875 33.175781 26.863281 33.246094 26.863281 L 33.28125 26.863281 C 33.363281 26.863281 33.441406 26.882812 33.511719 26.917969 L 33.679688 27.066406 L 33.9375 26.835938 C 33.859375 26.734375 33.753906 26.660156 33.632812 26.621094 C 33.515625 26.589844 33.394531 26.570312 33.265625 26.570312 M 26.554688 26.570312 C 26.414062 26.570312 26.296875 26.59375 26.199219 26.636719 C 26.109375 26.671875 26.023438 26.722656 25.953125 26.792969 C 25.835938 26.902344 25.769531 27.054688 25.765625 27.214844 C 25.761719 27.339844 25.792969 27.460938 25.851562 27.570312 C 25.90625 27.65625 25.980469 27.726562 26.066406 27.78125 C 26.152344 27.832031 26.246094 27.875 26.339844 27.902344 C 26.433594 27.929688 26.523438 27.960938 26.617188 27.992188 C 26.695312 28.019531 26.765625 28.058594 26.828125 28.113281 C 26.886719 28.15625 26.914062 28.226562 26.914062 28.3125 L 26.871094 28.480469 L 26.761719 28.601562 C 26.667969 28.660156 26.5625 28.695312 26.453125 28.695312 C 26.355469 28.695312 26.261719 28.675781 26.175781 28.636719 C 26.089844 28.597656 26.015625 28.535156 25.957031 28.453125 L 25.699219 28.671875 C 25.78125 28.78125 25.890625 28.863281 26.015625 28.910156 C 26.132812 28.957031 26.253906 28.980469 26.382812 28.988281 L 26.5 28.988281 C 26.589844 28.984375 26.675781 28.96875 26.757812 28.941406 C 26.851562 28.910156 26.9375 28.863281 27.011719 28.800781 C 27.164062 28.671875 27.25 28.480469 27.25 28.277344 C 27.25 28.140625 27.222656 28.03125 27.164062 27.953125 C 27.105469 27.871094 27.035156 27.808594 26.949219 27.761719 C 26.867188 27.714844 26.773438 27.679688 26.675781 27.652344 C 26.578125 27.628906 26.484375 27.597656 26.398438 27.566406 C 26.316406 27.535156 26.246094 27.492188 26.1875 27.4375 C 26.132812 27.386719 26.101562 27.3125 26.101562 27.214844 L 26.125 27.101562 L 26.199219 26.988281 L 26.339844 26.898438 C 26.402344 26.875 26.46875 26.863281 26.535156 26.863281 L 26.574219 26.863281 C 26.652344 26.863281 26.730469 26.882812 26.800781 26.917969 L 26.96875 27.066406 L 27.226562 26.835938 C 27.148438 26.734375 27.039062 26.660156 26.917969 26.621094 C 26.804688 26.589844 26.683594 26.570312 26.554688 26.570312 M 17.640625 26.570312 C 17.464844 26.570312 17.300781 26.601562 17.152344 26.664062 C 16.863281 26.78125 16.632812 27.011719 16.519531 27.304688 C 16.460938 27.449219 16.429688 27.609375 16.429688 27.78125 C 16.425781 27.945312 16.457031 28.105469 16.519531 28.257812 C 16.632812 28.546875 16.863281 28.777344 17.152344 28.894531 C 17.28125 28.953125 17.421875 28.980469 17.574219 28.988281 L 17.714844 28.988281 C 17.855469 28.980469 17.996094 28.953125 18.128906 28.898438 C 18.417969 28.777344 18.648438 28.546875 18.761719 28.257812 C 18.820312 28.113281 18.851562 27.953125 18.851562 27.78125 C 18.851562 27.609375 18.820312 27.449219 18.761719 27.300781 C 18.648438 27.011719 18.417969 26.78125 18.128906 26.664062 C 17.980469 26.601562 17.816406 26.570312 17.640625 26.570312 M 17.636719 26.863281 L 17.652344 26.863281 C 18.011719 26.863281 18.332031 27.085938 18.453125 27.425781 C 18.496094 27.535156 18.515625 27.652344 18.515625 27.78125 C 18.515625 27.90625 18.496094 28.023438 18.453125 28.136719 C 18.414062 28.25 18.351562 28.347656 18.277344 28.425781 C 18.113281 28.601562 17.886719 28.695312 17.652344 28.695312 L 17.640625 28.695312 C 17.503906 28.695312 17.386719 28.675781 17.28125 28.625 C 17.171875 28.574219 17.082031 28.511719 17.003906 28.425781 C 16.925781 28.347656 16.867188 28.25 16.828125 28.136719 C 16.785156 28.023438 16.761719 27.90625 16.761719 27.78125 C 16.761719 27.660156 16.785156 27.535156 16.828125 27.425781 C 16.867188 27.3125 16.925781 27.214844 17.003906 27.132812 C 17.164062 26.960938 17.390625 26.863281 17.628906 26.863281 L 17.636719 26.863281 M 56.90625 26.628906 L 56.621094 26.628906 L 55.597656 28.929688 L 55.964844 28.929688 L 56.195312 28.359375 L 57.300781 28.359375 L 57.535156 28.929688 L 57.902344 28.929688 Z M 56.304688 28.089844 L 56.746094 27.03125 L 56.753906 27.03125 L 57.1875 28.089844 Z M 51.789062 26.628906 L 51.355469 26.628906 L 51.355469 28.929688 L 51.789062 28.929688 Z M 46.988281 26.628906 L 45.488281 26.628906 L 45.488281 28.929688 L 47.046875 28.929688 L 47.046875 28.640625 L 45.800781 28.640625 L 45.800781 27.902344 L 46.902344 27.902344 L 46.902344 27.609375 L 45.800781 27.609375 L 45.800781 26.921875 L 46.988281 26.921875 Z M 45.488281 26.628906 Z M 44.496094 26.628906 L 42.683594 26.628906 L 42.683594 26.921875 L 43.429688 26.921875 L 43.429688 28.929688 L 43.746094 28.929688 L 43.746094 26.921875 L 44.496094 26.921875 Z M 41.296875 26.628906 L 41.011719 26.628906 L 39.988281 28.929688 L 40.355469 28.929688 L 40.585938 28.359375 L 41.691406 28.359375 L 41.921875 28.929688 L 42.292969 28.929688 Z M 40.695312 28.089844 L 41.136719 27.03125 L 41.140625 27.03125 L 41.574219 28.089844 Z M 38.4375 26.628906 L 37.621094 26.628906 L 37.621094 28.929688 L 37.9375 28.929688 L 37.9375 27.917969 L 38.285156 27.917969 L 38.878906 28.929688 L 39.273438 28.929688 L 38.613281 27.882812 C 38.773438 27.867188 38.921875 27.789062 39.03125 27.671875 C 39.132812 27.5625 39.183594 27.417969 39.183594 27.273438 C 39.183594 27.203125 39.171875 27.128906 39.152344 27.050781 C 39.128906 26.972656 39.089844 26.902344 39.035156 26.84375 C 38.972656 26.773438 38.890625 26.722656 38.804688 26.691406 C 38.710938 26.648438 38.585938 26.628906 38.4375 26.628906 M 37.9375 27.644531 L 37.9375 26.902344 L 38.351562 26.902344 L 38.53125 26.917969 L 38.691406 26.972656 L 38.804688 27.082031 L 38.847656 27.273438 L 38.804688 27.464844 L 38.691406 27.578125 L 38.53125 27.628906 L 38.351562 27.644531 Z M 36.628906 26.628906 L 34.820312 26.628906 L 34.820312 26.921875 L 35.566406 26.921875 L 35.566406 28.929688 L 35.882812 28.929688 L 35.882812 26.921875 L 36.628906 26.921875 Z M 31.4375 26.628906 L 29.9375 26.628906 L 29.9375 28.929688 L 31.5 28.929688 L 31.5 28.640625 L 30.253906 28.640625 L 30.253906 27.902344 L 31.355469 27.902344 L 31.355469 27.609375 L 30.253906 27.609375 L 30.253906 26.921875 L 31.4375 26.921875 Z M 24.730469 26.628906 L 23.230469 26.628906 L 23.230469 28.929688 L 24.789062 28.929688 L 24.789062 28.640625 L 23.542969 28.640625 L 23.542969 27.902344 L 24.644531 27.902344 L 24.644531 27.609375 L 23.542969 27.609375 L 23.542969 26.921875 L 24.730469 26.921875 Z M 21.976562 26.628906 L 21.660156 26.628906 L 21.660156 28.523438 L 21.652344 28.523438 L 20.375 26.628906 L 19.957031 26.628906 L 19.957031 28.929688 L 20.277344 28.929688 L 20.277344 27.039062 L 20.28125 27.039062 L 21.574219 28.929688 L 21.976562 28.929688 Z M 15.4375 26.628906 L 15.007812 26.628906 L 15.007812 28.929688 L 15.4375 28.929688 Z M 15.4375 26.628906 " fill-opacity="1" fill-rule="nonzero"/></g></svg>