<svg xmlns="http://www.w3.org/2000/svg" xmlns:xlink="http://www.w3.org/1999/xlink" width="83" zoomAndPan="magnify" viewBox="0 0 62.25 30.000001" height="40" preserveAspectRatio="xMidYMid meet" version="1.0"><defs><clipPath id="526111f65b"><path d="M 1 0.0429688 L 23 0.0429688 L 23 23 L 1 23 Z M 1 0.0429688 " clip-rule="nonzero"/></clipPath><clipPath id="93927ad672"><path d="M 20 0.0429688 L 60.867188 0.0429688 L 60.867188 23 L 20 23 Z M 20 0.0429688 " clip-rule="nonzero"/></clipPath><clipPath id="1dae28d7b8"><path d="M 0.65625 26 L 3 26 L 3 28.988281 L 0.65625 28.988281 Z M 0.65625 26 " clip-rule="nonzero"/></clipPath><clipPath id="bc11a113c5"><path d="M 3 26 L 9 26 L 9 28.988281 L 3 28.988281 Z M 3 26 " clip-rule="nonzero"/></clipPath><clipPath id="765182bd41"><path d="M 9 26 L 11 26 L 11 28.988281 L 9 28.988281 Z M 9 26 " clip-rule="nonzero"/></clipPath><clipPath id="0b69f90802"><path d="M 11 26 L 14 26 L 14 28.988281 L 11 28.988281 Z M 11 26 " clip-rule="nonzero"/></clipPath><clipPath id="007cb5fe14"><path d="M 1 24 L 60.867188 24 L 60.867188 28.988281 L 1 28.988281 Z M 1 24 " clip-rule="nonzero"/></clipPath></defs><g clip-path="url(#526111f65b)"><path fill="#1e5668" d="M 19.15625 22.230469 C 18.253906 22.230469 17.46875 22.082031 16.800781 21.78125 C 15.550781 21.203125 14.765625 20.160156 14.445312 18.640625 L 14.347656 17.261719 C 14.296875 16.351562 14.199219 15.441406 14.058594 14.539062 C 13.929688 13.75 13.703125 13.074219 13.378906 12.519531 C 12.691406 11.386719 11.5625 10.820312 9.992188 10.820312 L 8.316406 10.820312 L 8.316406 21.042969 L 11.507812 21.042969 L 11.507812 21.847656 L 1.023438 21.847656 L 1.023438 21.042969 L 4.21875 21.042969 L 4.21875 1.242188 L 1.023438 1.242188 L 1.023438 0.441406 L 12.378906 0.441406 C 14.765625 0.441406 16.542969 0.824219 17.703125 1.59375 C 18.90625 2.339844 19.507812 3.578125 19.507812 5.308594 C 19.507812 6.722656 18.949219 7.851562 17.832031 8.707031 C 16.691406 9.582031 14.984375 10.191406 12.703125 10.53125 C 15.390625 11.089844 17.089844 12.0625 17.800781 13.449219 C 18.164062 14.15625 18.429688 14.921875 18.589844 15.757812 C 18.753906 16.589844 18.84375 17.488281 18.863281 18.449219 L 18.898438 20.019531 C 19.027344 20.511719 19.285156 20.851562 19.671875 21.042969 C 19.867188 21.152344 20.210938 21.203125 20.703125 21.203125 C 21.046875 21.203125 21.5 21.171875 22.058594 21.109375 L 22.058594 21.847656 C 20.984375 22.101562 20.015625 22.230469 19.15625 22.230469 Z M 14.316406 2.296875 C 13.757812 1.59375 12.8125 1.238281 11.476562 1.238281 L 8.316406 1.238281 L 8.316406 10.019531 L 11.058594 10.019531 C 12.457031 10.019531 13.476562 9.667969 14.125 8.964844 C 14.765625 8.257812 15.089844 7.160156 15.089844 5.664062 C 15.089844 4.101562 14.832031 2.984375 14.316406 2.296875 Z M 14.316406 2.296875 " fill-opacity="1" fill-rule="nonzero"/></g><g clip-path="url(#93927ad672)"><path fill="#1e5668" d="M 58.191406 1.238281 L 50.707031 22.324219 L 49.738281 22.324219 L 42.0625 1.238281 L 39.382812 1.238281 L 39.382812 0.4375 L 49.609375 0.4375 L 49.609375 1.238281 L 46.289062 1.238281 L 51.773438 16.238281 L 57.222656 1.238281 L 53.867188 1.238281 L 53.867188 0.4375 L 60.867188 0.4375 L 60.867188 1.238281 Z M 39.3125 14.859375 C 39.230469 17.253906 38.421875 19.089844 36.894531 20.371094 C 35.367188 21.675781 33.433594 22.324219 31.085938 22.324219 C 28.097656 22.324219 25.636719 21.28125 23.703125 19.1875 C 21.722656 17.09375 20.730469 14.464844 20.730469 11.304688 C 20.730469 8.183594 21.734375 5.511719 23.734375 3.292969 C 25.734375 1.070312 28.132812 -0.0429688 30.925781 -0.0429688 C 32.046875 -0.0429688 33.046875 0.117188 33.929688 0.4375 C 34.832031 0.761719 35.574219 1.15625 36.152344 1.625 L 37.476562 0.28125 L 38.21875 0.28125 L 38.21875 6.464844 L 37.285156 6.464844 C 36.660156 4.285156 35.789062 2.800781 34.671875 2.007812 C 33.527344 1.175781 32.355469 0.761719 31.152344 0.761719 C 29.109375 0.761719 27.65625 1.402344 26.796875 2.683594 C 25.914062 3.984375 25.476562 5.929688 25.476562 8.515625 L 25.476562 12.875 C 25.476562 15.863281 25.851562 18.054688 26.605469 19.441406 C 27.355469 20.832031 28.789062 21.523438 30.894531 21.523438 C 32.035156 21.523438 32.949219 21.226562 33.636719 20.628906 C 34.367188 20.03125 34.734375 18.984375 34.734375 17.488281 L 34.734375 14.859375 L 31.476562 14.859375 L 31.476562 14.058594 L 41.574219 14.058594 L 41.574219 14.859375 Z M 39.3125 14.859375 " fill-opacity="1" fill-rule="nonzero"/></g><g clip-path="url(#1dae28d7b8)"><path fill="#1e5668" d="M 1.511719 26.644531 L 1.46875 26.644531 C 1.359375 26.648438 1.253906 26.667969 1.152344 26.707031 C 1.0625 26.746094 0.976562 26.796875 0.90625 26.867188 C 0.84375 26.925781 0.800781 26.996094 0.769531 27.074219 C 0.738281 27.152344 0.722656 27.222656 0.722656 27.289062 C 0.71875 27.414062 0.746094 27.539062 0.808594 27.644531 C 0.863281 27.730469 0.933594 27.804688 1.019531 27.855469 C 1.105469 27.910156 1.199219 27.949219 1.296875 27.980469 C 1.390625 28.003906 1.480469 28.035156 1.574219 28.070312 C 1.648438 28.097656 1.722656 28.136719 1.785156 28.1875 C 1.839844 28.234375 1.871094 28.300781 1.871094 28.390625 L 1.828125 28.558594 L 1.714844 28.679688 C 1.625 28.738281 1.519531 28.773438 1.40625 28.777344 C 1.3125 28.777344 1.222656 28.753906 1.132812 28.714844 C 1.042969 28.675781 0.972656 28.613281 0.914062 28.527344 L 0.65625 28.75 C 0.734375 28.859375 0.84375 28.941406 0.972656 28.988281 C 1.105469 29.042969 1.246094 29.070312 1.398438 29.070312 C 1.507812 29.070312 1.613281 29.050781 1.710938 29.019531 C 1.804688 28.988281 1.890625 28.941406 1.96875 28.878906 C 2.113281 28.757812 2.199219 28.578125 2.203125 28.394531 L 2.203125 28.355469 C 2.203125 28.214844 2.175781 28.105469 2.117188 28.027344 C 2.0625 27.949219 1.992188 27.882812 1.90625 27.839844 C 1.824219 27.792969 1.730469 27.753906 1.628906 27.730469 C 1.53125 27.703125 1.441406 27.671875 1.355469 27.640625 C 1.277344 27.613281 1.207031 27.570312 1.144531 27.511719 C 1.085938 27.460938 1.058594 27.386719 1.058594 27.289062 L 1.078125 27.175781 L 1.152344 27.058594 L 1.292969 26.96875 C 1.359375 26.949219 1.425781 26.9375 1.488281 26.9375 L 1.519531 26.9375 C 1.601562 26.9375 1.683594 26.957031 1.757812 26.992188 L 1.925781 27.136719 L 2.183594 26.910156 C 2.105469 26.808594 2 26.734375 1.878906 26.695312 C 1.761719 26.660156 1.640625 26.644531 1.511719 26.644531 " fill-opacity="1" fill-rule="nonzero"/></g><g clip-path="url(#bc11a113c5)"><path fill="#1e5668" d="M 6.714844 26.703125 L 7.027344 26.703125 L 7.027344 28.71875 L 8.09375 28.71875 L 8.09375 29.011719 L 6.714844 29.011719 Z M 4.394531 29.070312 C 4.226562 29.070312 4.058594 29.039062 3.902344 28.976562 C 3.613281 28.859375 3.386719 28.625 3.273438 28.335938 C 3.210938 28.183594 3.179688 28.019531 3.183594 27.855469 C 3.183594 27.683594 3.210938 27.523438 3.273438 27.378906 C 3.386719 27.085938 3.613281 26.855469 3.902344 26.738281 C 4.058594 26.675781 4.226562 26.640625 4.394531 26.644531 C 4.570312 26.644531 4.734375 26.675781 4.882812 26.738281 C 5.171875 26.855469 5.398438 27.085938 5.511719 27.378906 C 5.574219 27.523438 5.601562 27.683594 5.601562 27.855469 C 5.601562 28.027344 5.574219 28.1875 5.511719 28.335938 C 5.398438 28.628906 5.171875 28.859375 4.882812 28.976562 C 4.726562 29.039062 4.558594 29.070312 4.394531 29.070312 M 4.394531 28.777344 C 4.757812 28.78125 5.082031 28.554688 5.207031 28.214844 C 5.25 28.101562 5.269531 27.980469 5.269531 27.855469 C 5.269531 27.730469 5.246094 27.613281 5.207031 27.5 C 5.082031 27.160156 4.753906 26.933594 4.390625 26.9375 C 4.152344 26.933594 3.917969 27.03125 3.753906 27.207031 C 3.679688 27.289062 3.621094 27.386719 3.578125 27.5 C 3.535156 27.613281 3.515625 27.734375 3.515625 27.855469 C 3.515625 27.984375 3.535156 28.101562 3.578125 28.214844 C 3.621094 28.324219 3.679688 28.421875 3.753906 28.507812 C 3.921875 28.679688 4.152344 28.78125 4.394531 28.777344 " fill-opacity="1" fill-rule="nonzero"/></g><g clip-path="url(#765182bd41)"><path fill="#1e5668" d="M 10.828125 26.703125 L 10.515625 26.703125 L 10.515625 28.117188 C 10.515625 28.1875 10.503906 28.261719 10.484375 28.339844 C 10.464844 28.417969 10.429688 28.488281 10.386719 28.554688 L 10.203125 28.714844 C 10.125 28.753906 10.035156 28.777344 9.945312 28.777344 L 9.929688 28.777344 C 9.820312 28.777344 9.726562 28.753906 9.652344 28.714844 C 9.578125 28.671875 9.519531 28.617188 9.472656 28.554688 C 9.425781 28.488281 9.394531 28.417969 9.371094 28.339844 C 9.355469 28.261719 9.34375 28.1875 9.34375 28.117188 L 9.34375 26.703125 L 9.03125 26.703125 L 9.03125 28.203125 C 9.03125 28.316406 9.054688 28.429688 9.097656 28.53125 C 9.1875 28.75 9.355469 28.917969 9.574219 29.003906 C 9.683594 29.046875 9.800781 29.070312 9.929688 29.070312 C 10.054688 29.070312 10.171875 29.046875 10.285156 29.003906 C 10.390625 28.960938 10.488281 28.898438 10.566406 28.816406 C 10.652344 28.734375 10.714844 28.640625 10.757812 28.53125 C 10.804688 28.421875 10.828125 28.300781 10.828125 28.164062 Z M 10.828125 26.703125 " fill-opacity="1" fill-rule="nonzero"/></g><g clip-path="url(#0b69f90802)"><path fill="#1e5668" d="M 13.65625 27.203125 C 13.589844 27.117188 13.503906 27.050781 13.40625 27.003906 C 13.308594 26.960938 13.203125 26.9375 13.09375 26.9375 C 12.855469 26.933594 12.625 27.035156 12.464844 27.210938 C 12.390625 27.300781 12.332031 27.398438 12.292969 27.507812 C 12.207031 27.738281 12.207031 27.992188 12.289062 28.222656 C 12.328125 28.332031 12.382812 28.425781 12.460938 28.507812 C 12.535156 28.59375 12.625 28.660156 12.730469 28.703125 C 12.847656 28.753906 12.96875 28.777344 13.09375 28.777344 C 13.214844 28.78125 13.335938 28.75 13.445312 28.695312 C 13.546875 28.640625 13.636719 28.5625 13.703125 28.464844 L 13.96875 28.664062 C 13.894531 28.757812 13.804688 28.839844 13.703125 28.902344 C 13.515625 29.015625 13.304688 29.074219 13.089844 29.070312 C 12.757812 29.074219 12.4375 28.9375 12.214844 28.691406 C 12.007812 28.46875 11.894531 28.179688 11.894531 27.875 C 11.894531 27.699219 11.921875 27.535156 11.984375 27.382812 C 12.042969 27.230469 12.125 27.101562 12.230469 26.992188 C 12.335938 26.882812 12.464844 26.796875 12.613281 26.734375 C 12.914062 26.613281 13.253906 26.613281 13.558594 26.730469 C 13.703125 26.792969 13.824219 26.878906 13.917969 27.003906 Z M 13.65625 27.203125 " fill-opacity="1" fill-rule="nonzero"/></g><g clip-path="url(#007cb5fe14)"><path fill="#1e5668" d="M 60.867188 24.261719 L 1.023438 24.261719 L 1.023438 24.925781 L 60.867188 24.925781 Z M 46.738281 26.101562 L 46.316406 26.101562 L 45.976562 26.570312 L 46.246094 26.570312 Z M 53.976562 26.644531 C 53.816406 26.644531 53.652344 26.675781 53.5 26.734375 C 53.351562 26.796875 53.222656 26.882812 53.117188 26.992188 C 53.011719 27.101562 52.929688 27.230469 52.871094 27.382812 C 52.8125 27.535156 52.78125 27.699219 52.78125 27.875 C 52.78125 28.179688 52.894531 28.46875 53.101562 28.691406 C 53.308594 28.917969 53.597656 29.054688 53.902344 29.070312 L 54.050781 29.070312 C 54.238281 29.058594 54.425781 29 54.589844 28.902344 C 54.691406 28.839844 54.78125 28.757812 54.855469 28.664062 L 54.589844 28.464844 C 54.523438 28.5625 54.433594 28.640625 54.332031 28.695312 C 54.230469 28.746094 54.117188 28.777344 54 28.777344 L 53.980469 28.777344 C 53.847656 28.777344 53.726562 28.753906 53.617188 28.703125 C 53.515625 28.660156 53.421875 28.59375 53.347656 28.507812 C 53.273438 28.425781 53.214844 28.328125 53.175781 28.222656 C 53.09375 27.992188 53.097656 27.738281 53.179688 27.511719 C 53.21875 27.398438 53.277344 27.300781 53.355469 27.210938 C 53.507812 27.039062 53.730469 26.9375 53.964844 26.9375 L 53.980469 26.9375 C 54.089844 26.9375 54.195312 26.960938 54.292969 27.003906 C 54.394531 27.050781 54.476562 27.117188 54.542969 27.203125 L 54.808594 27.003906 C 54.714844 26.878906 54.589844 26.792969 54.445312 26.730469 C 54.292969 26.671875 54.136719 26.644531 53.976562 26.644531 M 59.503906 26.644531 C 59.386719 26.644531 59.273438 26.664062 59.167969 26.707031 C 59.074219 26.746094 58.992188 26.796875 58.921875 26.867188 C 58.863281 26.925781 58.8125 26.996094 58.78125 27.074219 C 58.753906 27.152344 58.738281 27.222656 58.738281 27.289062 C 58.730469 27.414062 58.761719 27.539062 58.824219 27.644531 C 58.878906 27.730469 58.949219 27.804688 59.035156 27.855469 C 59.121094 27.910156 59.214844 27.949219 59.308594 27.980469 C 59.402344 28.003906 59.496094 28.035156 59.585938 28.070312 C 59.664062 28.097656 59.734375 28.136719 59.796875 28.1875 C 59.855469 28.234375 59.882812 28.300781 59.882812 28.390625 L 59.839844 28.558594 L 59.730469 28.679688 C 59.640625 28.738281 59.53125 28.773438 59.421875 28.777344 C 59.324219 28.777344 59.234375 28.753906 59.148438 28.714844 C 59.058594 28.675781 58.984375 28.613281 58.925781 28.53125 L 58.667969 28.75 C 58.75 28.859375 58.859375 28.941406 58.988281 28.988281 C 59.105469 29.035156 59.222656 29.0625 59.351562 29.070312 L 59.46875 29.070312 C 59.558594 29.0625 59.644531 29.046875 59.726562 29.019531 C 59.820312 28.988281 59.90625 28.941406 59.980469 28.878906 C 60.132812 28.75 60.21875 28.558594 60.21875 28.355469 C 60.21875 28.214844 60.191406 28.105469 60.132812 28.027344 C 60.074219 27.949219 60.003906 27.886719 59.921875 27.839844 C 59.835938 27.792969 59.742188 27.753906 59.644531 27.730469 C 59.542969 27.703125 59.453125 27.671875 59.371094 27.640625 C 59.285156 27.609375 59.214844 27.566406 59.15625 27.515625 C 59.101562 27.460938 59.070312 27.386719 59.070312 27.289062 L 59.09375 27.175781 L 59.167969 27.0625 L 59.308594 26.972656 C 59.371094 26.949219 59.4375 26.9375 59.503906 26.9375 L 59.542969 26.9375 C 59.621094 26.9375 59.699219 26.957031 59.769531 26.992188 L 59.9375 27.140625 L 60.195312 26.910156 C 60.117188 26.808594 60.011719 26.734375 59.890625 26.695312 C 59.773438 26.664062 59.652344 26.644531 59.523438 26.644531 L 59.503906 26.644531 M 49.214844 26.644531 C 49.035156 26.644531 48.875 26.675781 48.726562 26.738281 C 48.4375 26.855469 48.207031 27.085938 48.09375 27.378906 C 48.03125 27.527344 48.003906 27.683594 48.003906 27.855469 C 48.003906 28.015625 48.03125 28.171875 48.085938 28.320312 C 48.140625 28.464844 48.222656 28.59375 48.328125 28.707031 C 48.441406 28.820312 48.574219 28.910156 48.722656 28.96875 C 48.863281 29.027344 49.015625 29.0625 49.167969 29.070312 L 49.320312 29.070312 C 49.371094 29.066406 49.421875 29.0625 49.472656 29.054688 C 49.628906 29.039062 49.785156 29.003906 49.933594 28.949219 L 50.128906 28.855469 L 50.128906 27.71875 L 49.296875 27.71875 L 49.296875 28.011719 L 49.8125 28.011719 L 49.8125 28.65625 C 49.742188 28.695312 49.65625 28.722656 49.558594 28.746094 C 49.457031 28.765625 49.351562 28.777344 49.242188 28.777344 C 49.113281 28.777344 48.992188 28.753906 48.882812 28.703125 C 48.667969 28.613281 48.492188 28.4375 48.40625 28.21875 C 48.316406 27.988281 48.316406 27.734375 48.402344 27.5 C 48.441406 27.386719 48.5 27.289062 48.578125 27.207031 C 48.738281 27.035156 48.964844 26.9375 49.199219 26.9375 L 49.226562 26.9375 C 49.335938 26.9375 49.449219 26.957031 49.554688 26.992188 C 49.667969 27.03125 49.769531 27.097656 49.859375 27.183594 L 50.082031 26.945312 C 49.988281 26.851562 49.875 26.777344 49.738281 26.722656 C 49.605469 26.671875 49.429688 26.644531 49.214844 26.644531 M 33.265625 26.644531 C 33.125 26.644531 33.007812 26.664062 32.90625 26.707031 C 32.816406 26.746094 32.734375 26.796875 32.664062 26.867188 C 32.550781 26.976562 32.480469 27.128906 32.480469 27.289062 C 32.472656 27.414062 32.5 27.539062 32.5625 27.644531 C 32.617188 27.730469 32.691406 27.804688 32.777344 27.855469 C 32.863281 27.910156 32.957031 27.949219 33.050781 27.980469 C 33.144531 28.003906 33.238281 28.035156 33.328125 28.070312 C 33.402344 28.097656 33.476562 28.136719 33.539062 28.1875 C 33.59375 28.234375 33.625 28.300781 33.625 28.390625 L 33.582031 28.558594 L 33.472656 28.679688 C 33.378906 28.738281 33.273438 28.773438 33.160156 28.777344 C 33.066406 28.777344 32.972656 28.753906 32.886719 28.714844 C 32.796875 28.675781 32.726562 28.613281 32.671875 28.53125 L 32.410156 28.75 C 32.492188 28.859375 32.601562 28.941406 32.726562 28.988281 C 32.84375 29.035156 32.964844 29.0625 33.09375 29.070312 L 33.207031 29.070312 C 33.300781 29.0625 33.386719 29.046875 33.46875 29.019531 C 33.558594 28.988281 33.648438 28.941406 33.722656 28.878906 C 33.875 28.75 33.960938 28.558594 33.960938 28.355469 C 33.964844 28.238281 33.9375 28.125 33.875 28.027344 C 33.816406 27.949219 33.746094 27.886719 33.664062 27.839844 C 33.578125 27.792969 33.488281 27.753906 33.386719 27.730469 C 33.285156 27.703125 33.195312 27.671875 33.113281 27.640625 C 33.027344 27.609375 32.957031 27.566406 32.898438 27.515625 C 32.84375 27.460938 32.816406 27.386719 32.816406 27.289062 L 32.835938 27.175781 L 32.910156 27.0625 L 33.050781 26.972656 C 33.113281 26.949219 33.175781 26.9375 33.246094 26.9375 L 33.28125 26.9375 C 33.363281 26.9375 33.441406 26.957031 33.511719 26.992188 L 33.679688 27.140625 L 33.9375 26.910156 C 33.859375 26.808594 33.753906 26.734375 33.632812 26.695312 C 33.515625 26.664062 33.394531 26.644531 33.265625 26.644531 M 26.554688 26.644531 C 26.414062 26.644531 26.296875 26.664062 26.199219 26.707031 C 26.109375 26.746094 26.023438 26.796875 25.953125 26.867188 C 25.835938 26.976562 25.769531 27.128906 25.765625 27.289062 C 25.761719 27.414062 25.792969 27.539062 25.851562 27.644531 C 25.90625 27.730469 25.980469 27.804688 26.066406 27.855469 C 26.152344 27.910156 26.246094 27.949219 26.339844 27.980469 C 26.433594 28.003906 26.523438 28.035156 26.617188 28.070312 C 26.695312 28.097656 26.765625 28.136719 26.828125 28.1875 C 26.886719 28.234375 26.914062 28.300781 26.914062 28.390625 L 26.871094 28.558594 L 26.761719 28.679688 C 26.667969 28.738281 26.5625 28.773438 26.453125 28.777344 C 26.355469 28.777344 26.261719 28.753906 26.175781 28.714844 C 26.089844 28.675781 26.015625 28.613281 25.957031 28.53125 L 25.699219 28.75 C 25.78125 28.859375 25.890625 28.941406 26.015625 28.988281 C 26.132812 29.035156 26.253906 29.0625 26.382812 29.070312 L 26.5 29.070312 C 26.589844 29.0625 26.675781 29.046875 26.757812 29.019531 C 26.851562 28.988281 26.9375 28.941406 27.011719 28.878906 C 27.164062 28.75 27.25 28.558594 27.25 28.355469 C 27.25 28.214844 27.222656 28.105469 27.164062 28.027344 C 27.105469 27.949219 27.035156 27.886719 26.949219 27.839844 C 26.867188 27.792969 26.773438 27.753906 26.675781 27.730469 C 26.578125 27.703125 26.484375 27.671875 26.398438 27.640625 C 26.316406 27.609375 26.246094 27.566406 26.1875 27.515625 C 26.132812 27.460938 26.101562 27.386719 26.101562 27.289062 L 26.125 27.175781 L 26.199219 27.0625 L 26.339844 26.972656 C 26.402344 26.949219 26.46875 26.9375 26.535156 26.9375 L 26.574219 26.9375 C 26.652344 26.9375 26.730469 26.957031 26.800781 26.992188 L 26.96875 27.140625 L 27.226562 26.910156 C 27.148438 26.808594 27.039062 26.734375 26.917969 26.695312 C 26.804688 26.664062 26.683594 26.644531 26.554688 26.644531 M 17.640625 26.644531 C 17.464844 26.644531 17.300781 26.675781 17.152344 26.738281 C 16.863281 26.855469 16.632812 27.085938 16.519531 27.378906 C 16.460938 27.527344 16.429688 27.683594 16.429688 27.855469 C 16.425781 28.019531 16.457031 28.183594 16.519531 28.335938 C 16.632812 28.625 16.863281 28.859375 17.152344 28.976562 C 17.28125 29.03125 17.421875 29.0625 17.574219 29.070312 L 17.714844 29.070312 C 17.855469 29.0625 17.996094 29.03125 18.128906 28.976562 C 18.417969 28.859375 18.648438 28.625 18.761719 28.335938 C 18.820312 28.1875 18.851562 28.027344 18.851562 27.855469 C 18.851562 27.683594 18.820312 27.527344 18.761719 27.378906 C 18.648438 27.085938 18.417969 26.855469 18.128906 26.738281 C 17.980469 26.675781 17.816406 26.644531 17.640625 26.644531 M 17.636719 26.9375 L 17.652344 26.9375 C 18.011719 26.9375 18.332031 27.160156 18.453125 27.5 C 18.496094 27.613281 18.515625 27.730469 18.515625 27.855469 C 18.515625 27.984375 18.496094 28.101562 18.453125 28.210938 C 18.414062 28.328125 18.351562 28.421875 18.277344 28.503906 C 18.113281 28.679688 17.886719 28.777344 17.652344 28.777344 L 17.640625 28.777344 C 17.503906 28.777344 17.386719 28.753906 17.28125 28.703125 C 17.171875 28.652344 17.082031 28.589844 17.003906 28.503906 C 16.925781 28.421875 16.867188 28.324219 16.828125 28.210938 C 16.785156 28.101562 16.761719 27.984375 16.761719 27.855469 C 16.761719 27.734375 16.785156 27.613281 16.828125 27.5 C 16.867188 27.386719 16.925781 27.289062 17.003906 27.207031 C 17.164062 27.035156 17.390625 26.9375 17.628906 26.9375 L 17.636719 26.9375 M 56.90625 26.703125 L 56.621094 26.703125 L 55.597656 29.011719 L 55.964844 29.011719 L 56.195312 28.4375 L 57.300781 28.4375 L 57.535156 29.011719 L 57.902344 29.011719 Z M 56.304688 28.167969 L 56.746094 27.105469 L 56.753906 27.105469 L 57.1875 28.167969 Z M 51.789062 26.703125 L 51.355469 26.703125 L 51.355469 29.011719 L 51.789062 29.011719 Z M 46.988281 26.703125 L 45.488281 26.703125 L 45.488281 29.011719 L 47.046875 29.011719 L 47.046875 28.71875 L 45.800781 28.71875 L 45.800781 27.976562 L 46.902344 27.976562 L 46.902344 27.683594 L 45.800781 27.683594 L 45.800781 26.996094 L 46.988281 26.996094 Z M 45.488281 26.703125 Z M 44.496094 26.703125 L 42.683594 26.703125 L 42.683594 26.996094 L 43.429688 26.996094 L 43.429688 29.011719 L 43.746094 29.011719 L 43.746094 26.996094 L 44.496094 26.996094 Z M 41.296875 26.703125 L 41.011719 26.703125 L 39.988281 29.011719 L 40.355469 29.011719 L 40.585938 28.4375 L 41.691406 28.4375 L 41.921875 29.011719 L 42.292969 29.011719 Z M 40.695312 28.167969 L 41.136719 27.105469 L 41.140625 27.105469 L 41.574219 28.167969 Z M 38.4375 26.703125 L 37.621094 26.703125 L 37.621094 29.011719 L 37.9375 29.011719 L 37.9375 27.996094 L 38.285156 27.996094 L 38.878906 29.011719 L 39.273438 29.011719 L 38.613281 27.957031 C 38.773438 27.941406 38.921875 27.867188 39.03125 27.746094 C 39.132812 27.636719 39.183594 27.496094 39.183594 27.347656 C 39.183594 27.277344 39.171875 27.203125 39.152344 27.125 C 39.128906 27.046875 39.089844 26.976562 39.035156 26.917969 C 38.972656 26.847656 38.890625 26.796875 38.804688 26.765625 C 38.710938 26.722656 38.585938 26.703125 38.4375 26.703125 M 37.9375 27.71875 L 37.9375 26.976562 L 38.351562 26.976562 L 38.53125 26.992188 L 38.691406 27.046875 L 38.804688 27.15625 L 38.847656 27.347656 L 38.804688 27.539062 L 38.691406 27.652344 L 38.53125 27.707031 L 38.351562 27.71875 Z M 36.628906 26.703125 L 34.820312 26.703125 L 34.820312 26.996094 L 35.566406 26.996094 L 35.566406 29.011719 L 35.882812 29.011719 L 35.882812 26.996094 L 36.628906 26.996094 Z M 31.4375 26.703125 L 29.9375 26.703125 L 29.9375 29.011719 L 31.5 29.011719 L 31.5 28.71875 L 30.253906 28.71875 L 30.253906 27.976562 L 31.355469 27.976562 L 31.355469 27.683594 L 30.253906 27.683594 L 30.253906 26.996094 L 31.4375 26.996094 Z M 24.730469 26.703125 L 23.230469 26.703125 L 23.230469 29.011719 L 24.789062 29.011719 L 24.789062 28.71875 L 23.542969 28.71875 L 23.542969 27.976562 L 24.644531 27.976562 L 24.644531 27.683594 L 23.542969 27.683594 L 23.542969 26.996094 L 24.730469 26.996094 Z M 21.976562 26.703125 L 21.660156 26.703125 L 21.660156 28.601562 L 21.652344 28.601562 L 20.375 26.703125 L 19.957031 26.703125 L 19.957031 29.011719 L 20.277344 29.011719 L 20.277344 27.113281 L 20.28125 27.113281 L 21.574219 29.011719 L 21.976562 29.011719 Z M 15.4375 26.703125 L 15.007812 26.703125 L 15.007812 29.011719 L 15.4375 29.011719 Z M 15.4375 26.703125 " fill-opacity="1" fill-rule="nonzero"/></g></svg>